<?xml version="1.0" encoding="UTF-8" standalone="no"?>
<!-- Created with Inkscape (http://www.inkscape.org/) -->

<svg
   width="50.799999mm"
   height="128.5mm"
   viewBox="0 0 50.799999 128.5"
   version="1.1"
   id="svg2483"
   inkscape:version="1.2 (dc2aeda, 2022-05-15)"
   sodipodi:docname="Circles.svg"
   xmlns:inkscape="http://www.inkscape.org/namespaces/inkscape"
   xmlns:sodipodi="http://sodipodi.sourceforge.net/DTD/sodipodi-0.dtd"
   xmlns="http://www.w3.org/2000/svg"
   xmlns:svg="http://www.w3.org/2000/svg">
  <sodipodi:namedview
     id="namedview2485"
     pagecolor="#c6b5b5"
     bordercolor="#666666"
     borderopacity="1.0"
     inkscape:showpageshadow="2"
     inkscape:pageopacity="1"
     inkscape:pagecheckerboard="0"
     inkscape:deskcolor="#d1d1d1"
     inkscape:document-units="mm"
     showgrid="false"
     inkscape:zoom="1.1893044"
     inkscape:cx="-91.229798"
     inkscape:cy="303.11836"
     inkscape:window-width="1858"
     inkscape:window-height="973"
     inkscape:window-x="1949"
     inkscape:window-y="25"
     inkscape:window-maximized="0"
     inkscape:current-layer="layer1" />
  <defs
     id="defs2480">
    <inkscape:perspective
       sodipodi:type="inkscape:persp3d"
       inkscape:vp_x="46.273547 : 9.52263 : 1"
       inkscape:vp_y="0 : 1000 : 0"
       inkscape:vp_z="97.073546 : 9.52263 : 1"
       inkscape:persp3d-origin="71.673546 : -11.894037 : 1"
       id="perspective1442" />
    <linearGradient
       id="linearGradient1296"
       inkscape:swatch="solid">
      <stop
         style="stop-color:#000000;stop-opacity:1;"
         offset="0"
         id="stop1294" />
    </linearGradient>
    <inkscape:perspective
       sodipodi:type="inkscape:persp3d"
       inkscape:vp_x="0 : 64.25 : 1"
       inkscape:vp_y="0 : 1000 : 0"
       inkscape:vp_z="50.799999 : 64.25 : 1"
       inkscape:persp3d-origin="25.399999 : 42.833333 : 1"
       id="perspective285" />
    <rect
       x="304.37961"
       y="69.788696"
       width="338.0127"
       height="53.812969"
       id="rect2603" />
    <rect
       x="156.39394"
       y="87.446075"
       width="164.80222"
       height="75.674484"
       id="rect2597" />
    <rect
       x="10.930759"
       y="20.179863"
       width="159.75725"
       height="45.404694"
       id="rect2541" />
  </defs>
  <g
     inkscape:label="Layer 1"
     inkscape:groupmode="layer"
     id="layer1"
     style="display:inline">
    <rect
       style="fill:#998781"
       id="rect8553"
       width="50.945396"
       height="128.36459"
       x="-0.22246897"
       y="0.22246897" />
    <text
       xml:space="preserve"
       transform="scale(0.26458333)"
       id="text2595"
       style="font-style:normal;font-weight:normal;font-size:40px;line-height:1.25;font-family:sans-serif;white-space:pre;shape-inside:url(#rect2597);display:inline;fill:#000000;fill-opacity:1;stroke:none" />
    <text
       xml:space="preserve"
       transform="scale(0.26458333)"
       id="text2601"
       style="font-style:normal;font-weight:normal;font-size:40px;line-height:1.25;font-family:sans-serif;white-space:pre;shape-inside:url(#rect2603);display:inline;fill:#000000;fill-opacity:1;stroke:none" />
    <rect
       style="opacity:1;fill:#000000;fill-opacity:1;stroke:#000000;stroke-width:0.265;stroke-dasharray:none;stroke-opacity:1;paint-order:stroke fill markers"
       id="rect506"
       width="13.570607"
       height="27.141214"
       x="30.700722"
       y="95.216721" />
    <g
       aria-label="Out"
       id="text1354"
       style="font-weight:600;font-size:4.23333px;line-height:1.25;font-family:'Gill Sans';-inkscape-font-specification:'Gill Sans, Semi-Bold';fill:#ffffff;stroke-width:0.264583">
      <path
         d="m 35.168681,99.410833 q 0.448551,0 0.806151,0.186035 0.359668,0.183968 0.572575,0.533302 0.212906,0.34726 0.212906,0.76274 0,0.40514 -0.208772,0.75241 -0.206706,0.3452 -0.570508,0.53743 -0.361734,0.19017 -0.816487,0.19017 -0.448551,0 -0.816486,-0.1943 -0.365869,-0.1943 -0.570508,-0.5333 -0.204638,-0.34106 -0.204638,-0.75241 0,-0.39687 0.204638,-0.74621 0.204639,-0.349328 0.564306,-0.541564 0.359668,-0.194303 0.826823,-0.194303 z m -1.019059,1.482077 q 0,0.28732 0.130225,0.51677 0.130224,0.22944 0.361734,0.35553 0.233578,0.12609 0.5271,0.12609 0.444417,0 0.72967,-0.27905 0.287321,-0.27906 0.287321,-0.71934 0,-0.28732 -0.130225,-0.51676 -0.128157,-0.23151 -0.363801,-0.3576 -0.233578,-0.126093 -0.5271,-0.126093 -0.293521,0 -0.529166,0.128153 -0.233577,0.12609 -0.359667,0.35554 -0.126091,0.22737 -0.126091,0.51676 z"
         id="path21696" />
      <path
         d="m 37.709092,100.40509 v 1.19475 q 0,0.18811 0.09302,0.28733 0.09508,0.0971 0.250114,0.0971 0.128157,0 0.24598,-0.0785 0.117822,-0.0786 0.190169,-0.22118 v -1.2795 h 0.508495 v 1.93063 h -0.508495 v -0.26252 q -0.274919,0.29972 -0.595312,0.29972 -0.310059,0 -0.500228,-0.20257 -0.190169,-0.20257 -0.190169,-0.52916 v -1.2361 z"
         id="path21698" />
      <path
         d="m 40.034529,99.892457 h 0.04134 v 0.512633 h 0.661458 v 0.38447 H 40.07587 v 0.8909 q 0,0.13022 0.07855,0.21084 0.07855,0.0806 0.214974,0.0806 0.177767,0 0.409277,-0.12815 v 0.40721 q -0.274918,0.12195 -0.516764,0.12195 -0.326595,0 -0.510563,-0.17776 -0.181901,-0.17777 -0.181901,-0.48163 v -0.92397 h -0.30179 v -0.0827 z"
         id="path21700" />
    </g>
    <g
       aria-label="Circle of Fifths"
       transform="matrix(0.26458333,0,0,0.26458333,2.0022208,-4.4493795)"
       id="text2539"
       style="font-size:40px;line-height:1.25;white-space:pre;shape-inside:url(#rect2541);display:inline">
      <path
         d="m 21.326172,40.090869 q 1.394531,0 2.730469,0.316406 1.335937,0.316406 2.882812,1.078125 v 2.976563 q -1.511719,-0.867188 -2.800781,-1.253907 -1.277344,-0.386718 -2.671875,-0.386718 -1.746094,0 -3.152344,0.726562 -1.40625,0.714844 -2.191406,2.027344 -0.773438,1.3125 -0.773438,2.917969 0,1.640625 0.773438,2.941406 0.773437,1.300781 2.179687,2.015625 1.40625,0.703125 3.164063,0.703125 1.347656,0 2.566406,-0.386719 1.230469,-0.386719 3.09375,-1.394531 v 2.976562 q -1.59375,0.832032 -2.929687,1.183594 -1.335938,0.351563 -3.117188,0.351563 -2.589844,0 -4.628906,-1.03125 -2.039063,-1.03125 -3.210938,-2.964844 -1.160156,-1.945313 -1.160156,-4.253906 0,-2.472657 1.195313,-4.441407 1.207031,-1.96875 3.304687,-3.035156 2.109375,-1.066406 4.746094,-1.066406 z"
         style="font-weight:600;font-size:24px;font-family:'Gill Sans';-inkscape-font-specification:'Gill Sans, Semi-Bold'"
         id="path21667" />
      <path
         d="m 31.310547,40.665088 q 0.667969,0 1.148437,0.480468 0.480469,0.480469 0.480469,1.148438 0,0.644531 -0.480469,1.148437 -0.46875,0.492188 -1.148437,0.492188 -0.65625,0 -1.148438,-0.492188 -0.480468,-0.503906 -0.480468,-1.148437 0,-0.679688 0.492187,-1.148438 0.492188,-0.480468 1.136719,-0.480468 z m 1.441406,5.0625 V 56.6729 H 29.869141 V 45.727588 Z"
         style="font-weight:600;font-size:24px;font-family:'Gill Sans';-inkscape-font-specification:'Gill Sans, Semi-Bold'"
         id="path21669" />
      <path
         d="m 41.986328,45.51665 q 0.574219,0 1.125,0.257813 0.5625,0.257812 1.300781,0.867187 l -1.03125,2.519531 q -1.253906,-0.9375 -2.015625,-0.9375 -0.667968,0 -1.324218,0.503907 -0.644532,0.492187 -1.042969,1.3125 -0.386719,0.820312 -0.386719,1.640625 V 56.6729 H 35.728516 V 45.727588 h 2.882812 v 2.789062 h 0.04687 q 0.785156,-1.582031 1.582031,-2.285156 0.796875,-0.714844 1.746094,-0.714844 z"
         style="font-weight:600;font-size:24px;font-family:'Gill Sans';-inkscape-font-specification:'Gill Sans, Semi-Bold'"
         id="path21671" />
      <path
         d="m 50.529297,45.51665 q 1.910156,0 3.457031,0.738281 v 2.449219 q -1.535156,-0.890625 -2.90625,-0.890625 -1.476562,0 -2.414062,0.925781 -0.9375,0.914063 -0.9375,2.484375 0,1.535157 0.9375,2.472657 0.949218,0.9375 2.519531,0.9375 1.171875,0 3,-0.773438 v 2.332031 q -1.699219,0.691407 -3.503906,0.691407 -2.660157,0 -4.324219,-1.523438 -1.652344,-1.523437 -1.652344,-4.042969 0,-2.613281 1.617188,-4.207031 1.628906,-1.59375 4.207031,-1.59375 z"
         style="font-weight:600;font-size:24px;font-family:'Gill Sans';-inkscape-font-specification:'Gill Sans, Semi-Bold'"
         id="path21673" />
      <path
         d="M 59.318359,40.301806 V 56.6729 H 56.435547 V 40.301806 Z"
         style="font-weight:600;font-size:24px;font-family:'Gill Sans';-inkscape-font-specification:'Gill Sans, Semi-Bold'"
         id="path21675" />
      <path
         d="m 67.193359,45.51665 q 2.414063,0 3.820313,1.546875 1.40625,1.546875 1.40625,4.277344 v 0.433594 h -7.746094 q 0.175781,1.464843 1.089844,2.261718 0.925781,0.785157 2.53125,0.785157 1.03125,0 1.980469,-0.351563 0.960937,-0.363281 1.980468,-1.089844 v 2.144532 q -1.921875,1.359375 -4.664062,1.359375 -2.589844,0 -4.230469,-1.558594 -1.640625,-1.558594 -1.640625,-4.148438 0,-2.496093 1.511719,-4.078125 1.523437,-1.582031 3.960937,-1.582031 z m 2.519532,4.511719 Q 69.595703,48.833056 68.986328,48.165088 68.376953,47.4854 67.310547,47.4854 q -1.089844,0 -1.757813,0.644531 -0.65625,0.644532 -0.832031,1.898438 z"
         style="font-weight:600;font-size:24px;font-family:'Gill Sans';-inkscape-font-specification:'Gill Sans, Semi-Bold'"
         id="path21677" />
      <path
         d="m 86.775391,45.51665 q 1.710937,0 3.105468,0.714844 1.394532,0.714844 2.15625,2.003906 0.761719,1.289063 0.761719,2.917969 0,1.699219 -0.738281,2.976562 -0.726563,1.277344 -2.15625,2.015625 -1.417969,0.738282 -3.128906,0.738282 -1.722657,0 -3.128907,-0.738282 -1.40625,-0.738281 -2.144531,-2.015625 -0.726562,-1.277343 -0.726562,-2.976562 0,-1.652344 0.773437,-2.929688 0.773438,-1.289062 2.15625,-1.992187 1.382813,-0.714844 3.070313,-0.714844 z m -2.976563,5.636719 q 0,1.640625 0.796875,2.625 0.808594,0.972656 2.15625,0.972656 1.40625,0 2.214844,-0.9375 0.808594,-0.9375 0.808594,-2.683594 0,-1.664062 -0.820313,-2.566406 -0.808594,-0.914062 -2.203125,-0.914062 -1.3125,0 -2.132812,0.960937 -0.820313,0.960938 -0.820313,2.542969 z"
         style="font-weight:600;font-size:24px;font-family:'Gill Sans';-inkscape-font-specification:'Gill Sans, Semi-Bold'"
         id="path21679" />
      <path
         d="m 99.712891,40.090869 q 0.503909,0 1.031249,0.09375 0.53906,0.09375 0.86719,0.246094 v 2.34375 q -0.59766,-0.164063 -1.30078,-0.164063 -1.042972,0 -1.558597,0.539063 -0.503906,0.539062 -0.503906,1.792968 v 0.785157 h 1.875003 v 2.179687 H 98.248047 V 56.6729 h -2.882813 v -8.765625 h -1.558593 v -2.179687 h 1.558593 v -0.820313 q 0,-2.214844 1.183594,-3.515625 1.195313,-1.300781 3.164063,-1.300781 z"
         style="font-weight:600;font-size:24px;font-family:'Gill Sans';-inkscape-font-specification:'Gill Sans, Semi-Bold'"
         id="path21681" />
      <path
         d="m 118.67383,40.301806 v 2.472657 h -6.82031 v 4.230468 h 6.82031 v 2.496094 h -6.82031 V 56.6729 h -3.16407 V 40.301806 Z"
         style="font-weight:600;font-size:24px;font-family:'Gill Sans';-inkscape-font-specification:'Gill Sans, Semi-Bold'"
         id="path21683" />
      <path
         d="m 122.72852,40.665088 q 0.66796,0 1.14843,0.480468 0.48047,0.480469 0.48047,1.148438 0,0.644531 -0.48047,1.148437 -0.46875,0.492188 -1.14843,0.492188 -0.65625,0 -1.14844,-0.492188 -0.48047,-0.503906 -0.48047,-1.148437 0,-0.679688 0.49219,-1.148438 0.49218,-0.480468 1.13672,-0.480468 z m 1.4414,5.0625 V 56.6729 h -2.88281 V 45.727588 Z"
         style="font-weight:600;font-size:24px;font-family:'Gill Sans';-inkscape-font-specification:'Gill Sans, Semi-Bold'"
         id="path21685" />
      <path
         d="m 131.75195,40.090869 q 0.50391,0 1.03125,0.09375 0.53907,0.09375 0.86719,0.246094 v 2.34375 q -0.59766,-0.164063 -1.30078,-0.164063 -1.04297,0 -1.55859,0.539063 -0.50391,0.539062 -0.50391,1.792968 v 0.785157 h 1.875 v 2.179687 h -1.875 V 56.6729 h -2.88281 v -8.765625 h -1.5586 v -2.179687 h 1.5586 v -0.820313 q 0,-2.214844 1.18359,-3.515625 1.19531,-1.300781 3.16406,-1.300781 z"
         style="font-weight:600;font-size:24px;font-family:'Gill Sans';-inkscape-font-specification:'Gill Sans, Semi-Bold'"
         id="path21687" />
      <path
         d="m 136.69727,42.821338 h 0.23437 v 2.90625 h 3.75 v 2.179687 h -3.75 v 5.050781 q 0,0.738282 0.44531,1.195313 0.44532,0.457031 1.21875,0.457031 1.00782,0 2.32032,-0.726562 v 2.308593 q -1.5586,0.691407 -2.92969,0.691407 -1.85156,0 -2.89453,-1.007813 -1.03125,-1.007812 -1.03125,-2.730469 v -5.238281 h -1.71094 v -0.46875 z"
         style="font-weight:600;font-size:24px;font-family:'Gill Sans';-inkscape-font-specification:'Gill Sans, Semi-Bold'"
         id="path21689" />
      <path
         d="m 145.43945,40.301806 v 6.960938 h 0.0703 q 1.39453,-1.746094 3.36328,-1.746094 1.74609,0 2.8125,1.148438 1.0664,1.148437 1.0664,3 V 56.6729 h -2.87109 v -6.457031 q 0,-1.101563 -0.52734,-1.746094 -0.51563,-0.65625 -1.41797,-0.65625 -0.65625,0 -1.24219,0.375 -0.57422,0.375 -1.25391,1.242188 V 56.6729 h -2.88281 V 40.301806 Z"
         style="font-weight:600;font-size:24px;font-family:'Gill Sans';-inkscape-font-specification:'Gill Sans, Semi-Bold'"
         id="path21691" />
      <path
         d="m 159.0918,45.51665 q 0.90234,0 1.69922,0.210938 0.79687,0.199218 1.6875,0.644531 v 2.308594 q -0.82032,-0.527344 -1.75782,-0.84375 -0.9375,-0.328125 -1.67578,-0.328125 -0.62109,0 -0.97265,0.234375 -0.35157,0.234375 -0.35157,0.667968 0,0.246094 0.29297,0.492188 0.29297,0.246094 1.60547,0.902344 1.875,0.949218 2.625,1.757812 0.76172,0.796875 0.76172,1.921875 0,1.582031 -1.10156,2.496094 -1.10157,0.902344 -2.97657,0.902344 -1.17187,0 -2.1914,-0.257813 -1.00781,-0.257812 -1.67578,-0.621094 v -2.402343 q 2.10937,1.171875 3.55078,1.171875 0.73828,0 1.19531,-0.257813 0.45703,-0.269531 0.45703,-0.703125 0,-0.257812 -0.16406,-0.46875 -0.16406,-0.210937 -0.49219,-0.433594 -0.32812,-0.222656 -2.05078,-1.066406 -1.32422,-0.632812 -1.95703,-1.371094 -0.63281,-0.75 -0.63281,-1.769531 0,-1.453125 1.13672,-2.320312 1.13671,-0.867188 2.98828,-0.867188 z"
         style="font-weight:600;font-size:24px;font-family:'Gill Sans';-inkscape-font-specification:'Gill Sans, Semi-Bold'"
         id="path21693" />
    </g>
  </g>
  <g
     inkscape:groupmode="layer"
     id="layer2"
     inkscape:label="components"
     style="display:inline"
     data-name="components">
    <ellipse
       style="display:none;opacity:1;fill:#0000ff;fill-opacity:1;stroke:none;stroke-width:0.264999;stroke-dasharray:none;stroke-opacity:1;paint-order:stroke fill markers"
       id="output"
       cx="37.486023"
       cy="115.1277"
       rx="2.5583932"
       ry="2.1134553"
       inkscape:label="output" />
  </g>
</svg>
