<?xml version="1.0" encoding="UTF-8" standalone="no"?>
<!-- Created with Inkscape (http://www.inkscape.org/) -->

<svg
   width="50.799999mm"
   height="128.5mm"
   viewBox="0 0 50.799999 128.5"
   version="1.1"
   id="svg2483"
   inkscape:version="1.2 (dc2aeda, 2022-05-15)"
   sodipodi:docname="Circles.svg"
   xmlns:inkscape="http://www.inkscape.org/namespaces/inkscape"
   xmlns:sodipodi="http://sodipodi.sourceforge.net/DTD/sodipodi-0.dtd"
   xmlns="http://www.w3.org/2000/svg"
   xmlns:svg="http://www.w3.org/2000/svg">
  <sodipodi:namedview
     id="namedview2485"
     pagecolor="#c6b5b5"
     bordercolor="#666666"
     borderopacity="1.0"
     inkscape:showpageshadow="2"
     inkscape:pageopacity="1"
     inkscape:pagecheckerboard="0"
     inkscape:deskcolor="#d1d1d1"
     inkscape:document-units="mm"
     showgrid="true"
     inkscape:zoom="1.1893044"
     inkscape:cx="-240.89712"
     inkscape:cy="303.11836"
     inkscape:window-width="1858"
     inkscape:window-height="973"
     inkscape:window-x="2808"
     inkscape:window-y="25"
     inkscape:window-maximized="0"
     inkscape:current-layer="layer1">
    <inkscape:grid
       type="xygrid"
       id="grid8114" />
  </sodipodi:namedview>
  <defs
     id="defs2480">
    <inkscape:perspective
       sodipodi:type="inkscape:persp3d"
       inkscape:vp_x="46.273547 : 9.52263 : 1"
       inkscape:vp_y="0 : 1000 : 0"
       inkscape:vp_z="97.073546 : 9.52263 : 1"
       inkscape:persp3d-origin="71.673546 : -11.894037 : 1"
       id="perspective1442" />
    <linearGradient
       id="linearGradient1296"
       inkscape:swatch="solid">
      <stop
         style="stop-color:#000000;stop-opacity:1;"
         offset="0"
         id="stop1294" />
    </linearGradient>
    <inkscape:perspective
       sodipodi:type="inkscape:persp3d"
       inkscape:vp_x="0 : 64.25 : 1"
       inkscape:vp_y="0 : 1000 : 0"
       inkscape:vp_z="50.799999 : 64.25 : 1"
       inkscape:persp3d-origin="25.399999 : 42.833333 : 1"
       id="perspective285" />
    <rect
       x="304.37961"
       y="69.788696"
       width="338.0127"
       height="53.812969"
       id="rect2603" />
    <rect
       x="156.39394"
       y="87.446075"
       width="164.80222"
       height="75.674484"
       id="rect2597" />
    <rect
       x="10.930759"
       y="20.179863"
       width="159.75725"
       height="45.404694"
       id="rect2541" />
  </defs>
  <g
     inkscape:label="Layer 1"
     inkscape:groupmode="layer"
     id="layer1"
     style="display:inline">
    <rect
       style="fill:#998781"
       id="rect8553"
       width="50.945396"
       height="128.36459"
       x="-0.22246897"
       y="0.22246897" />
    <rect
       style="opacity:1;fill:#000000;fill-opacity:1;stroke:#000000;stroke-width:0.265;stroke-dasharray:none;stroke-opacity:1;paint-order:stroke fill markers"
       id="rect506"
       width="13.570607"
       height="27.141214"
       x="31.40856"
       y="94.908562" />
    <rect
       style="display:inline;fill:#000000;fill-opacity:0;stroke:#000000;stroke-width:0.265;stroke-dasharray:none;stroke-opacity:1;paint-order:stroke fill markers"
       id="rect506-3"
       width="13.570607"
       height="27.141214"
       x="7.7230601"
       y="94.908562" />
    <g
       aria-label="Out"
       id="text1354"
       style="font-weight:600;font-size:4.23333px;line-height:1.25;font-family:'Gill Sans';-inkscape-font-specification:'Gill Sans, Semi-Bold';fill:#ffffff;stroke-width:0.264583"
       transform="translate(1.0180709,-2.9960439)">
      <path
         d="m 35.168681,99.410833 q 0.448551,0 0.806151,0.186035 0.359668,0.183968 0.572575,0.533302 0.212906,0.34726 0.212906,0.76274 0,0.40514 -0.208772,0.75241 -0.206706,0.3452 -0.570508,0.53743 -0.361734,0.19017 -0.816487,0.19017 -0.448551,0 -0.816486,-0.1943 -0.365869,-0.1943 -0.570508,-0.5333 -0.204638,-0.34106 -0.204638,-0.75241 0,-0.39687 0.204638,-0.74621 0.204639,-0.349328 0.564306,-0.541564 0.359668,-0.194303 0.826823,-0.194303 z m -1.019059,1.482077 q 0,0.28732 0.130225,0.51677 0.130224,0.22944 0.361734,0.35553 0.233578,0.12609 0.5271,0.12609 0.444417,0 0.72967,-0.27905 0.287321,-0.27906 0.287321,-0.71934 0,-0.28732 -0.130225,-0.51676 -0.128157,-0.23151 -0.363801,-0.3576 -0.233578,-0.126093 -0.5271,-0.126093 -0.293521,0 -0.529166,0.128153 -0.233577,0.12609 -0.359667,0.35554 -0.126091,0.22737 -0.126091,0.51676 z"
         id="path21696" />
      <path
         d="m 37.709092,100.40509 v 1.19475 q 0,0.18811 0.09302,0.28733 0.09508,0.0971 0.250114,0.0971 0.128157,0 0.24598,-0.0785 0.117822,-0.0786 0.190169,-0.22118 v -1.2795 h 0.508495 v 1.93063 h -0.508495 v -0.26252 q -0.274919,0.29972 -0.595312,0.29972 -0.310059,0 -0.500228,-0.20257 -0.190169,-0.20257 -0.190169,-0.52916 v -1.2361 z"
         id="path21698" />
      <path
         d="m 40.034529,99.892457 h 0.04134 v 0.512633 h 0.661458 v 0.38447 H 40.07587 v 0.8909 q 0,0.13022 0.07855,0.21084 0.07855,0.0806 0.214974,0.0806 0.177767,0 0.409277,-0.12815 v 0.40721 q -0.274918,0.12195 -0.516764,0.12195 -0.326595,0 -0.510563,-0.17776 -0.181901,-0.17777 -0.181901,-0.48163 v -0.92397 h -0.30179 v -0.0827 z"
         id="path21700" />
    </g>
    <g
       aria-label="Circle of Fifths"
       transform="matrix(0.26458333,0,0,0.26458333,2.0022208,-4.4493795)"
       id="text2539"
       style="font-size:40px;line-height:1.25;white-space:pre;shape-inside:url(#rect2541);display:inline">
      <g
         aria-label="Circles of Hell"
         id="text1750"
         style="font-weight:600;font-size:39.9999px;font-family:'Gill Sans';-inkscape-font-specification:'Gill Sans, Semi-Bold';display:inline">
        <path
           d="m 17.202339,46.816556 q 1.549481,0 3.033858,0.351563 1.484377,0.351563 3.203129,1.197918 v 3.307296 q -1.67969,-0.963543 -3.111983,-1.393231 -1.419273,-0.429688 -2.968754,-0.429688 -1.940107,0 -3.502609,0.807293 -1.562502,0.794271 -2.434899,2.252607 -0.859376,1.458335 -0.859376,3.242191 0,1.822919 0.859376,3.268233 0.859376,1.445315 2.421878,2.239587 1.562502,0.781251 3.51563,0.781251 1.497398,0 2.851566,-0.429688 1.367189,-0.429688 3.437504,-1.549482 v 3.307296 q -1.770835,0.924481 -3.255212,1.315106 -1.484377,0.390626 -3.463546,0.390626 -2.877608,0 -5.143236,-1.145835 -2.2656277,-1.145835 -3.5677127,-3.294275 -1.2890641,-2.161461 -1.2890641,-4.726569 0,-2.747399 1.3281267,-4.934902 1.3411475,-2.187502 3.6718801,-3.3724 2.343752,-1.184897 5.273444,-1.184897 z"
           style="font-size:26.6667px"
           id="path1802" />
        <path
           d="m 28.296103,47.454578 q 0.742188,0 1.276043,0.533854 0.533855,0.533855 0.533855,1.276044 0,0.716146 -0.533855,1.276043 -0.520834,0.546876 -1.276043,0.546876 -0.729168,0 -1.276043,-0.546876 -0.533855,-0.559897 -0.533855,-1.276043 0,-0.75521 0.546876,-1.276044 0.546875,-0.533854 1.263022,-0.533854 z m 1.601565,5.625007 V 65.241058 H 26.694539 V 53.079585 Z"
           style="font-size:26.6667px"
           id="path1804" />
        <path
           d="m 40.158097,52.845209 q 0.638022,0 1.250002,0.286459 0.625,0.286459 1.445314,0.963543 l -1.145835,2.799483 q -1.393231,-1.041668 -2.239586,-1.041668 -0.742188,0 -1.471356,0.559896 -0.716147,0.546876 -1.158856,1.458335 -0.429688,0.91146 -0.429688,1.822919 v 5.546882 H 33.204963 V 53.079585 h 3.203129 v 3.098962 h 0.05208 q 0.872397,-1.757815 1.757814,-2.539066 0.885418,-0.794272 1.940107,-0.794272 z"
           style="font-size:26.6667px"
           id="path1806" />
        <path
           d="m 49.6503,52.845209 q 2.122398,0 3.84115,0.820314 v 2.721357 q -1.705731,-0.989584 -3.22917,-0.989584 -1.640627,0 -2.682295,1.028647 -1.041668,1.015626 -1.041668,2.76042 0,1.705732 1.041668,2.7474 1.054688,1.041667 2.799482,1.041667 1.302085,0 3.333338,-0.859376 v 2.59115 q -1.888023,0.76823 -3.893234,0.76823 -2.955733,0 -4.804694,-1.692711 -1.83594,-1.69271 -1.83594,-4.492193 0,-2.90365 1.796878,-4.674485 1.809898,-1.770836 4.674485,-1.770836 z"
           style="font-size:26.6667px"
           id="path1808" />
        <path
           d="M 59.415934,47.050931 V 65.241058 H 56.212805 V 47.050931 Z"
           style="font-size:26.6667px"
           id="path1810" />
        <path
           d="m 68.165943,52.845209 q 2.682295,0 4.244797,1.718753 1.562502,1.718752 1.562502,4.75261 v 0.481771 h -8.606781 q 0.195312,1.627606 1.210939,2.513024 1.028647,0.872397 2.812503,0.872397 1.145835,0 2.200524,-0.390625 1.067709,-0.403647 2.200523,-1.210939 v 2.382815 q -2.135419,1.510419 -5.182298,1.510419 -2.877608,0 -4.700527,-1.731773 -1.822919,-1.731773 -1.822919,-4.609381 0,-2.773441 1.67969,-4.531256 1.692711,-1.757815 4.401047,-1.757815 z m 2.799483,5.013028 q -0.130208,-1.328127 -0.807293,-2.070316 -0.677084,-0.755209 -1.861981,-0.755209 -1.210939,0 -1.953128,0.716147 -0.729167,0.716147 -0.92448,2.109378 z"
           style="font-size:26.6667px"
           id="path1812" />
        <path
           d="m 80.431584,52.845209 q 1.002606,0 1.888023,0.234376 0.885418,0.221354 1.875003,0.716146 v 2.565108 q -0.91146,-0.585938 -1.953128,-0.937501 -1.041668,-0.364584 -1.861981,-0.364584 -0.690105,0 -1.080731,0.260417 -0.390625,0.260417 -0.390625,0.742188 0,0.273438 0.325521,0.546876 0.325521,0.273438 1.783856,1.002605 2.083336,1.054689 2.916671,1.953128 0.846355,0.885418 0.846355,2.135419 0,1.757815 -1.22396,2.773441 -1.22396,1.002606 -3.307296,1.002606 -1.302085,0 -2.434899,-0.286459 Q 76.6946,64.902516 75.952412,64.49887 v -2.669274 q 2.343753,1.302085 3.945317,1.302085 0.820314,0 1.328127,-0.286459 0.507813,-0.29948 0.507813,-0.781251 0,-0.286459 -0.182292,-0.520834 -0.182292,-0.234375 -0.546875,-0.481771 -0.364584,-0.247397 -2.278649,-1.184898 -1.471356,-0.703126 -2.174482,-1.523439 -0.703126,-0.833335 -0.703126,-1.966149 0,-1.614585 1.263023,-2.578128 1.263022,-0.963543 3.320316,-0.963543 z"
           style="font-size:26.6667px"
           id="path1814" />
        <path
           d="m 100.69203,52.845209 q 1.90104,0 3.45052,0.794272 1.54949,0.794272 2.39584,2.226566 0.84636,1.432293 0.84636,3.242191 0,1.888023 -0.82032,3.307296 -0.80729,1.419273 -2.39583,2.239586 -1.57553,0.820314 -3.47657,0.820314 -1.914066,0 -3.476568,-0.820314 -1.562502,-0.820313 -2.382815,-2.239586 -0.807293,-1.419273 -0.807293,-3.307296 0,-1.83594 0.859376,-3.255212 0.859376,-1.432294 2.395836,-2.213545 1.536461,-0.794272 3.411464,-0.794272 z m -3.307297,6.263029 q 0,1.822919 0.885418,2.91667 0.898439,1.080731 2.395839,1.080731 1.5625,0 2.46094,-1.041668 0.89844,-1.041668 0.89844,-2.981775 0,-1.84896 -0.91146,-2.851566 -0.89844,-1.015626 -2.44792,-1.015626 -1.458338,0 -2.369797,1.06771 -0.91146,1.067709 -0.91146,2.825524 z"
           style="font-size:26.6667px"
           id="path1816" />
        <path
           d="m 115.06705,46.816556 q 0.55989,0 1.14583,0.104167 0.59896,0.104166 0.96354,0.273438 v 2.60417 q -0.66406,-0.182292 -1.44531,-0.182292 -1.15886,0 -1.73177,0.598959 -0.5599,0.598959 -0.5599,1.99219 v 0.872397 h 2.08334 v 2.421878 h -2.08334 v 9.739595 h -3.20313 v -9.739595 h -1.73177 v -2.421878 h 1.73177 v -0.91146 q 0,-2.46094 1.31511,-3.906255 1.32812,-1.445314 3.51563,-1.445314 z"
           style="font-size:26.6667px"
           id="path1818" />
        <path
           d="m 128.55665,47.050931 v 7.65626 h 9.44012 v -7.65626 h 3.51563 v 18.190127 h -3.51563 v -7.682301 h -9.44012 v 7.682301 h -3.51563 V 47.050931 Z"
           style="font-size:26.6667px"
           id="path1820" />
        <path
           d="m 150.56189,52.845209 q 2.68229,0 4.24479,1.718753 1.5625,1.718752 1.5625,4.75261 v 0.481771 h -8.60678 q 0.19532,1.627606 1.21094,2.513024 1.02865,0.872397 2.81251,0.872397 1.14583,0 2.20052,-0.390625 1.06771,-0.403647 2.20052,-1.210939 v 2.382815 q -2.13542,1.510419 -5.1823,1.510419 -2.8776,0 -4.70052,-1.731773 -1.82292,-1.731773 -1.82292,-4.609381 0,-2.773441 1.67969,-4.531256 1.69271,-1.757815 4.40105,-1.757815 z m 2.79948,5.013028 q -0.13021,-1.328127 -0.80729,-2.070316 -0.67709,-0.755209 -1.86199,-0.755209 -1.21093,0 -1.95312,0.716147 -0.72917,0.716147 -0.92448,2.109378 z"
           style="font-size:26.6667px"
           id="path1822" />
        <path
           d="m 162.1895,47.050931 v 18.190127 h -3.20313 V 47.050931 Z"
           style="font-size:26.6667px"
           id="path1824" />
        <path
           d="m 168.80409,47.050931 v 18.190127 h -3.20313 V 47.050931 Z"
           style="font-size:26.6667px"
           id="path1826" />
      </g>
    </g>
    <g
       aria-label="Interval "
       id="text4174-9"
       style="font-weight:600;font-size:10.5833px;line-height:1.25;font-family:'Gill Sans';-inkscape-font-specification:'Gill Sans, Semi-Bold';display:inline;stroke-width:0.264583">
      <path
         d="M 18.063673,18.758983 V 21.64666 H 17.505568 V 18.758983 Z"
         style="font-size:4.23333px"
         id="path8003" />
      <path
         d="m 19.766927,19.678823 q 0.310058,0 0.494026,0.204638 0.186035,0.202572 0.186035,0.535368 v 1.227831 h -0.506429 v -1.176155 q 0,-0.188102 -0.09095,-0.297656 -0.08888,-0.109554 -0.243913,-0.109554 -0.117822,0 -0.221175,0.07028 -0.103352,0.06821 -0.227376,0.229443 V 21.64666 H 18.64865 v -1.93063 h 0.508495 v 0.270784 q 0.14056,-0.165364 0.287321,-0.235644 0.148828,-0.07235 0.322461,-0.07235 z"
         style="font-size:4.23333px"
         id="path8005" />
      <path
         d="m 21.468113,19.2034 h 0.04134 v 0.51263 h 0.661458 v 0.384472 h -0.661458 v 0.890901 q 0,0.130225 0.07855,0.21084 0.07855,0.08062 0.214973,0.08062 0.177767,0 0.409277,-0.128157 v 0.40721 q -0.274918,0.121956 -0.516764,0.121956 -0.326594,0 -0.510562,-0.177767 -0.181901,-0.177767 -0.181901,-0.481624 v -0.923974 h -0.30179 v -0.08268 z"
         style="font-size:4.23333px"
         id="path8007" />
      <path
         d="m 23.36567,19.678823 q 0.425814,0 0.67386,0.272851 0.248047,0.272852 0.248047,0.754476 v 0.07648 h -1.366324 q 0.03101,0.258382 0.192236,0.398941 0.163298,0.138493 0.446484,0.138493 0.181901,0 0.349333,-0.06201 0.169498,-0.06408 0.349332,-0.192236 v 0.378271 q -0.338997,0.239779 -0.822688,0.239779 -0.456819,0 -0.746207,-0.274919 -0.289388,-0.274918 -0.289388,-0.731737 0,-0.440283 0.26665,-0.719336 0.268718,-0.279052 0.698665,-0.279052 z m 0.444417,0.795816 q -0.02067,-0.210839 -0.128157,-0.328661 -0.107487,-0.11989 -0.295589,-0.11989 -0.192236,0 -0.310059,0.113688 -0.115755,0.113688 -0.146761,0.334863 z"
         style="font-size:4.23333px"
         id="path8009" />
      <path
         d="m 25.790327,19.678823 q 0.101285,0 0.198437,0.04547 0.09922,0.04547 0.229443,0.152962 l -0.181901,0.444417 q -0.221175,-0.165364 -0.355533,-0.165364 -0.117823,0 -0.233578,0.08888 -0.113688,0.08682 -0.183968,0.23151 -0.06821,0.144694 -0.06821,0.289388 v 0.880566 h -0.508496 v -1.93063 h 0.508496 v 0.491959 h 0.0083 q 0.138492,-0.279052 0.279052,-0.403076 0.14056,-0.12609 0.307992,-0.12609 z"
         style="font-size:4.23333px"
         id="path8011" />
      <path
         d="m 26.755642,19.71603 0.46302,1.118277 0.452685,-1.118277 h 0.541569 l -0.872298,1.967837 h -0.245979 l -0.8847,-1.967837 z"
         style="font-size:4.23333px"
         id="path8013" />
      <path
         d="m 29.169962,19.678823 q 0.37207,0 0.568441,0.159163 0.19637,0.157096 0.19637,0.440283 v 0.944644 q 0,0.109554 0.08888,0.109554 0.03721,0 0.103353,-0.03101 0.06821,-0.03307 0.113688,-0.07441 v 0.293521 q -0.26665,0.163298 -0.487825,0.163298 -0.136426,0 -0.21084,-0.04547 -0.07235,-0.04548 -0.101285,-0.161231 -0.291455,0.206706 -0.584977,0.206706 -0.208773,0 -0.359668,-0.14056 -0.148828,-0.14056 -0.148828,-0.33693 0,-0.250114 0.148828,-0.394808 0.148828,-0.144693 0.520898,-0.25218 l 0.411344,-0.11989 v -0.08888 q 0,-0.283187 -0.343131,-0.283187 -0.1757,0 -0.349332,0.08062 -0.173633,0.08062 -0.31626,0.237711 v -0.456819 q 0.31626,-0.250114 0.750341,-0.250114 z m -0.310058,1.451073 q 0,0.10542 0.06615,0.169499 0.06821,0.06408 0.167431,0.06408 0.167432,0 0.334863,-0.152962 v -0.508496 q -0.212907,0.07235 -0.334863,0.136426 -0.119889,0.06408 -0.177767,0.130225 -0.05581,0.06615 -0.05581,0.16123 z"
         style="font-size:4.23333px"
         id="path8015" />
      <path
         d="M 31.044782,18.758983 V 21.64666 H 30.536286 V 18.758983 Z"
         style="font-size:4.23333px"
         id="path8017" />
    </g>
    <g
       aria-label="Step"
       id="text8112"
       style="font-weight:600;font-size:10.5833px;line-height:1.25;font-family:'Gill Sans';-inkscape-font-specification:'Gill Sans, Semi-Bold';display:inline;stroke-width:0.264583">
      <path
         d="m 11.490463,95.946599 q 0.421679,0 0.812353,0.21084 v 0.496093 Q 11.854265,96.382748 11.507,96.382748 q -0.21084,0 -0.330729,0.08268 -0.117822,0.08062 -0.117822,0.217041 0,0.163297 0.221174,0.30179 0.06201,0.04134 0.47749,0.23151 0.355534,0.167432 0.51263,0.37207 0.157096,0.204639 0.157096,0.49196 0,0.37207 -0.268717,0.601513 -0.26665,0.227376 -0.692464,0.227376 -0.276985,0 -0.477489,-0.05995 -0.198438,-0.06201 -0.446484,-0.210839 v -0.549837 q 0.46302,0.384472 0.872297,0.384472 0.204639,0 0.330729,-0.08888 0.12609,-0.08888 0.12609,-0.235645 0,-0.200504 -0.219108,-0.326594 -0.1819,-0.09922 -0.469221,-0.237712 -0.341064,-0.155029 -0.510563,-0.361734 -0.167431,-0.206706 -0.167431,-0.479557 0,-0.363802 0.270784,-0.578776 0.270784,-0.217041 0.715201,-0.217041 z"
         style="font-size:4.23333px"
         id="path9023" />
      <path
         d="m 13.379752,96.428223 h 0.04134 v 0.51263 h 0.661458 v 0.384472 h -0.661458 v 0.890901 q 0,0.130225 0.07855,0.21084 0.07855,0.08062 0.214974,0.08062 0.177767,0 0.409277,-0.128157 v 0.40721 q -0.274919,0.121956 -0.516764,0.121956 -0.326595,0 -0.510563,-0.177767 -0.181901,-0.177767 -0.181901,-0.481624 v -0.923974 h -0.30179 v -0.08268 z"
         style="font-size:4.23333px"
         id="path9025" />
      <path
         d="m 15.277309,96.903646 q 0.425813,0 0.67386,0.272851 0.248047,0.272852 0.248047,0.754476 v 0.07648 h -1.366324 q 0.03101,0.258382 0.192236,0.398941 0.163298,0.138493 0.446484,0.138493 0.181901,0 0.349333,-0.06201 0.169498,-0.06408 0.349332,-0.192236 v 0.378271 q -0.338997,0.239779 -0.822688,0.239779 -0.456819,0 -0.746207,-0.274919 -0.289388,-0.274918 -0.289388,-0.731737 0,-0.440283 0.26665,-0.719336 0.268717,-0.279052 0.698665,-0.279052 z m 0.444417,0.795816 q -0.02067,-0.210839 -0.128158,-0.328661 -0.107486,-0.11989 -0.295589,-0.11989 -0.192236,0 -0.310058,0.113688 -0.115755,0.113688 -0.146761,0.334863 z"
         style="font-size:4.23333px"
         id="path9027" />
      <path
         d="m 17.592411,96.903646 q 0.413411,0 0.665592,0.276985 0.254248,0.276986 0.254248,0.721403 0,0.291455 -0.11989,0.520898 -0.117822,0.229443 -0.33693,0.3576 -0.219108,0.128158 -0.496093,0.128158 -0.225309,0 -0.452685,-0.113688 v 1.050064 h -0.508496 v -2.904213 h 0.504362 v 0.124023 q 0.229443,-0.16123 0.489892,-0.16123 z m -0.485758,1.519286 q 0.190169,0.109554 0.355533,0.109554 0.239779,0 0.384473,-0.171566 0.144694,-0.171565 0.144694,-0.44235 0,-0.295589 -0.130225,-0.46302 -0.128157,-0.167432 -0.365869,-0.167432 -0.08888,0 -0.171565,0.03101 -0.08268,0.02894 -0.217041,0.126091 z"
         style="font-size:4.23333px"
         id="path9029" />
    </g>
  </g>
  <g
     inkscape:groupmode="layer"
     id="layer2"
     inkscape:label="components"
     style="display:inline"
     data-name="components">
    <ellipse
       style="display:inline;opacity:1;fill:#0000ff;fill-opacity:1;stroke:none;stroke-width:0.434447;stroke-dasharray:none;stroke-opacity:1;paint-order:stroke fill markers"
       id="output"
       cx="38.193863"
       cy="115.35994"
       rx="3.92503"
       ry="3.7025609"
       inkscape:label="output" />
    <ellipse
       style="display:inline;fill:#00ff00;fill-opacity:1;stroke:none;stroke-width:0.434447;stroke-dasharray:none;stroke-opacity:1;paint-order:stroke fill markers"
       id="step"
       cx="14.508364"
       cy="115.35994"
       rx="3.92503"
       ry="3.7025609"
       inkscape:label="step" />
    <ellipse
       style="fill:#ff0000;fill-opacity:1;stroke-width:0.264999;paint-order:stroke fill markers"
       id="interval"
       cx="24.694054"
       cy="30.144547"
       rx="3.5595036"
       ry="2.7808621"
       inkscape:label="interval" />
  </g>
</svg>
